<svg xmlns="http://www.w3.org/2000/svg" xmlns:xlink="http://www.w3.org/1999/xlink" xmlns:lucid="lucid" width="641.5" height="1586.71"><g transform="translate(-759 -518.5)" lucid:page-tab-id="0_0"><path d="M910 520c16.57 0 30 13.43 30 30s-13.43 30-30 30H810c-16.57 0-30-13.43-30-30s13.43-30 30-30z" stroke="#008a0e" stroke-width="3" fill="#e3fae3"/><use xlink:href="#a" transform="matrix(1,0,0,1,785,525) translate(54.660493827160494 29.444444444444443)"/><path d="M1130 520c16.57 0 30 13.43 30 30s-13.43 30-30 30h-100c-16.57 0-30-13.43-30-30s13.43-30 30-30z" stroke="#008a0e" stroke-width="3" fill="#e3fae3"/><use xlink:href="#b" transform="matrix(1,0,0,1,1005,525) translate(55.864197530864196 29.444444444444443)"/><path d="M860 582v12.7" stroke="#000" fill="none"/><path d="M860.48 582h-.96v-.5h.96z" stroke="#000" stroke-width=".05"/><path d="M860 609.48l-4.63-14.27h9.26z" stroke="#000"/><path d="M1080 582v12.7" stroke="#000" fill="none"/><path d="M1080.47 582h-.94v-.5h.94z" stroke="#000" stroke-width=".05"/><path d="M1080 609.48l-4.63-14.27h9.27z" stroke="#000"/><path d="M780.66 620.1a8 8 0 0 1 8-8h364a8 8 0 0 1 8 8v48.2a8 8 0 0 1-8 8h-364a8 8 0 0 1-8-8z" stroke="#1071e5" stroke-width="2" fill="#edf5ff"/><use xlink:href="#c" transform="matrix(1,0,0,1,792.6606851037271,624.0960463134973) translate(92.67993827160495 24.988888888888887)"/><use xlink:href="#d" transform="matrix(1,0,0,1,792.6606851037271,624.0960463134973) translate(177.34537037037038 24.988888888888887)"/><use xlink:href="#e" transform="matrix(1,0,0,1,792.6606851037271,624.0960463134973) translate(207.20895061728396 24.988888888888887)"/><path d="M1073.2 742.85a20.97 20.97 0 0 1 14.93 0l85.06 32.44a3.05 3.05 0 0 1 0 5.7l-85.07 32.44a20.97 20.97 0 0 1-14.94 0L988.12 781a3.05 3.05 0 0 1 0-5.7z" stroke="#fcce14" stroke-width="3" fill="#fff"/><use xlink:href="#f" transform="matrix(1,0,0,1,985.6606851037272,745) translate(11.487962962962982 37.98888888888889)"/><use xlink:href="#g" transform="matrix(1,0,0,1,985.6606851037272,745) translate(56.37685185185187 37.98888888888889)"/><use xlink:href="#h" transform="matrix(1,0,0,1,985.6606851037272,745) translate(78.75895061728396 37.98888888888889)"/><use xlink:href="#i" transform="matrix(1,0,0,1,985.6606851037272,745) translate(109.93179012345679 37.98888888888889)"/><path d="M1081.14 723.6h-.95v-1.5h.94zm0-28.44h-.95V677.8h.94z" stroke="#000" stroke-width=".05"/><path d="M1081.14 677.8h-.95v-.5h.94z"/><path stroke="#000" stroke-width=".05"/><path d="M1080.66 738.36l-4.63-14.27h9.27z"/><path d="M1080.66 739.9l-5.3-16.3h10.6zm-3.98-15.34l3.98 12.26 3.98-12.26z" stroke="#000" stroke-width=".05"/><use xlink:href="#j" transform="matrix(1,0,0,1,1061.3335246099,695.1638521414068) translate(0.004999999999999005 17.955555555555552)"/><path d="M1081.64 860.5h-1.95v-7.2h1.94zm0-34.13h-1.95v-9.05h1.94z" stroke="#008a0e" stroke-width=".05" fill="#008a0e"/><path d="M1080.66 816.32l.98-.04v1.06h-1.95v-1.06z" fill="#008a0e"/><path stroke="#008a0e" stroke-width=".05" fill="#008a0e"/><path d="M1080.66 875.76l-4.63-14.26h9.27z" fill="#008a0e"/><path d="M1080.66 878.92l-5.98-18.4h11.96zm-3.3-16.45l3.3 10.14 3.3-10.13z" stroke="#008a0e" stroke-width=".05" fill="#008a0e"/><use xlink:href="#k" transform="matrix(1,0,0,1,1062.3622283136037,826.3719845648684) translate(0.004999999999999005 17.955555555555552)"/><path d="M980.66 888a8 8 0 0 1 8-8h184a8 8 0 0 1 8 8v47.8a8 8 0 0 1-8 8h-184a8 8 0 0 1-8-8z" stroke="#1071e5" stroke-width="2" fill="#edf5ff"/><use xlink:href="#f" transform="matrix(1,0,0,1,992.6606851037272,892) translate(13.216358024691374 17.955555555555552)"/><use xlink:href="#l" transform="matrix(1,0,0,1,992.6606851037272,892) translate(58.10524691358026 17.955555555555552)"/><use xlink:href="#m" transform="matrix(1,0,0,1,992.6606851037272,892) translate(22.537037037037038 39.37777777777778)"/><use xlink:href="#n" transform="matrix(1,0,0,1,992.6606851037272,892) translate(93.31481481481482 39.37777777777778)"/><use xlink:href="#o" transform="matrix(1,0,0,1,992.6606851037272,892) translate(113.75308641975309 39.37777777777778)"/><path d="M1187.22 779.12h-9.56v-1.95h9.56zm33.78 0h-5.17v-1.95h5.17z" stroke="#e81313" stroke-width=".05" fill="#e81313"/><path d="M1177.7 779.12h-1.16l.12-.98-.12-.97h1.15z" fill="#e81313"/><path stroke="#e81313" stroke-width=".05" fill="#e81313"/><path d="M1236.26 778.14l-14.26 4.64v-9.27z" fill="#e81313"/><path d="M1239.42 778.14l-18.4 5.98v-11.95zm-16.45 3.3l10.14-3.3-10.13-3.3z" stroke="#e81313" stroke-width=".05" fill="#e81313"/><use xlink:href="#p" transform="matrix(1,0,0,1,1187.2157395660497,764.6774028035792) translate(0.005000000000000782 17.955555555555552)"/><path d="M1371.87 750c15.54 0 28.13 12.6 28.13 28.14 0 15.54-12.6 28.13-28.13 28.13h-103.74c-15.54 0-28.13-12.6-28.13-28.13s12.6-28.13 28.13-28.13z" stroke="#e81313" fill="#fff"/><use xlink:href="#q" transform="matrix(1,0,0,1,1245,755.0141273621176) translate(46.38333333333334 17.955555555555552)"/><use xlink:href="#r" transform="matrix(1,0,0,1,1245,755.0141273621176) translate(25.778086419753095 44.888888888888886)"/><path d="M860.48 862.6h-.96V724.13h.96zm0-165.4h-.96v-19.4h.96z" stroke="#000" stroke-width=".05"/><path d="M860.48 677.8h-.96v-.5h.96z"/><path stroke="#000" stroke-width=".05"/><path d="M860 877.38l-4.63-14.26h9.26z"/><path d="M860 878.92l-5.3-16.28h10.6zm-3.98-15.33l3.98 12.24 3.98-12.25z" stroke="#000" stroke-width=".05"/><use xlink:href="#s" transform="matrix(1,0,0,1,839.4570987654322,697.1909365262347) translate(0.004999999999999005 17.955555555555552)"/><path d="M760 888a8 8 0 0 1 8-8h184a8 8 0 0 1 8 8v47.5a8 8 0 0 1-8 8H768a8 8 0 0 1-8-8z" stroke="#1071e5" stroke-width="2" fill="#edf5ff"/><use xlink:href="#t" transform="matrix(1,0,0,1,772,892) translate(18.956790123456784 17.77777777777778)"/><use xlink:href="#u" transform="matrix(1,0,0,1,772,892) translate(91.67283950617283 17.77777777777778)"/><use xlink:href="#v" transform="matrix(1,0,0,1,772,892) translate(18.833333333333314 37.333333333333336)"/><use xlink:href="#w" transform="matrix(1,0,0,1,772,892) translate(73.53703703703702 37.333333333333336)"/><use xlink:href="#x" transform="matrix(1,0,0,1,772,892) translate(88.35185185185185 37.333333333333336)"/><use xlink:href="#y" transform="matrix(1,0,0,1,772,892) translate(113.53703703703704 37.333333333333336)"/><path d="M870 1015.52a8 8 0 0 1 8-8h184a8 8 0 0 1 8 8v47.5a8 8 0 0 1-8 8H878a8 8 0 0 1-8-8z" stroke="#1071e5" stroke-width="2" fill="#edf5ff"/><use xlink:href="#z" transform="matrix(1,0,0,1,882,1019.5197684325133) translate(1.9941358024691453 24.488888888888887)"/><use xlink:href="#A" transform="matrix(1,0,0,1,882,1019.5197684325133) translate(149.06759259259258 24.488888888888887)"/><path d="M860.37 944.82l57.13 50.8" stroke="#000" fill="none"/><path d="M860.07 945.18l-.8-.7h1.42z" stroke="#000" stroke-width=".05"/><path d="M928.54 1005.45l-13.74-6.02 6.16-6.93z" stroke="#000"/><path d="M1080.3 945.15l-53.28 50.14" stroke="#000" fill="none"/><path d="M1080.6 945.5l-.64-.7h1.4z" stroke="#000" stroke-width=".05"/><path d="M1016.27 1005.4l7.2-13.14 6.36 6.75z" stroke="#000"/><path d="M870.66 1948a8 8 0 0 1 8-8h184a8 8 0 0 1 8 8v47.7a8 8 0 0 1-8 8h-184a8 8 0 0 1-8-8z" stroke="#1071e5" stroke-width="2" fill="#edf5ff"/><use xlink:href="#B" transform="matrix(1,0,0,1,882.6606851037272,1952) translate(14.463271604938285 17.955555555555552)"/><use xlink:href="#C" transform="matrix(1,0,0,1,882.6606851037272,1952) translate(60.59907407407408 17.955555555555552)"/><use xlink:href="#D" transform="matrix(1,0,0,1,882.6606851037272,1952) translate(24.86419753086419 41.15555555555555)"/><use xlink:href="#E" transform="matrix(1,0,0,1,882.6606851037272,1952) translate(115.62962962962963 41.15555555555555)"/><path d="M870 1228a8 8 0 0 1 8-8h184a8 8 0 0 1 8 8v47.7a8 8 0 0 1-8 8H878a8 8 0 0 1-8-8z" stroke="#1071e5" stroke-width="2" fill="#edf5ff"/><use xlink:href="#F" transform="matrix(1,0,0,1,882,1232) translate(36.87654320987655 24.488888888888887)"/><use xlink:href="#e" transform="matrix(1,0,0,1,882,1232) translate(83.01234567901236 24.488888888888887)"/><path d="M970 1285.2v17.42" stroke="#000" fill="none"/><path d="M970.48 1285.22h-.96v-.5h.96z" stroke="#000" stroke-width=".05"/><path d="M970 1317.38l-4.63-14.26h9.26z" stroke="#000"/><path d="M870 1328a8 8 0 0 1 8-8h184a8 8 0 0 1 8 8v47.7a8 8 0 0 1-8 8H878a8 8 0 0 1-8-8z" stroke="#1071e5" stroke-width="2" fill="#edf5ff"/><use xlink:href="#G" transform="matrix(1,0,0,1,882,1332) translate(34.476234567901244 24.488888888888887)"/><use xlink:href="#H" transform="matrix(1,0,0,1,882,1332) translate(85.53734567901235 24.488888888888887)"/><path d="M970 1385.2v17.42" stroke="#000" fill="none"/><path d="M970.48 1385.22h-.96v-.5h.96z" stroke="#000" stroke-width=".05"/><path d="M970 1417.38l-4.63-14.26h9.26z" stroke="#000"/><path d="M962.38 1622.43a25.1 25.1 0 0 1 15.24 0l84.76 27a2.55 2.55 0 0 1 0 4.85l-84.76 27a25.1 25.1 0 0 1-15.24 0l-84.76-27a2.55 2.55 0 0 1 0-4.85z" stroke="#fcce14" stroke-width="3" fill="#fff"/><use xlink:href="#I" transform="matrix(1,0,0,1,874.9999999999999,1625) translate(73.52191358024692 31.488888888888887)"/><use xlink:href="#J" transform="matrix(1,0,0,1,874.9999999999999,1625) translate(84.68179012345679 31.488888888888887)"/><use xlink:href="#K" transform="matrix(1,0,0,1,874.9999999999999,1625) translate(104.00895061728394 31.488888888888887)"/><path d="M1108.8 2060c12.08 0 21.86 9.78 21.86 21.86 0 12.07-9.8 21.85-21.86 21.85H832.53c-12.07 0-21.86-9.77-21.86-21.84 0-12.08 9.8-21.86 21.86-21.86z" stroke="#00c2a8" stroke-width="3" fill="#aff7ea"/><use xlink:href="#L" transform="matrix(1,0,0,1,815.6606851037272,2065) translate(45.3962962962963 21.488888888888887)"/><use xlink:href="#M" transform="matrix(1,0,0,1,815.6606851037272,2065) translate(118.8395061728395 21.488888888888887)"/><use xlink:href="#N" transform="matrix(1,0,0,1,815.6606851037272,2065) translate(223.5179012345679 21.488888888888887)"/><path d="M870 1428a8 8 0 0 1 8-8h184a8 8 0 0 1 8 8v47.7a8 8 0 0 1-8 8H878a8 8 0 0 1-8-8z" stroke="#1071e5" stroke-width="2" fill="#edf5ff"/><use xlink:href="#O" transform="matrix(1,0,0,1,882,1432) translate(23.316358024691368 24.488888888888887)"/><use xlink:href="#P" transform="matrix(1,0,0,1,882,1432) translate(64.33981481481482 24.488888888888887)"/><path d="M970.66 2005.2v36.92" stroke="#000" fill="none"/><path d="M971.14 2005.22h-.95v-.5h.94z" stroke="#000" stroke-width=".05"/><path d="M970.66 2056.88l-4.63-14.26h9.27z" stroke="#000"/><path d="M870 1528a8 8 0 0 1 8-8h184a8 8 0 0 1 8 8v47.7a8 8 0 0 1-8 8H878a8 8 0 0 1-8-8z" stroke="#1071e5" stroke-width="2" fill="#edf5ff"/><use xlink:href="#B" transform="matrix(1,0,0,1,882,1532) translate(14.463271604938285 17.955555555555552)"/><use xlink:href="#C" transform="matrix(1,0,0,1,882,1532) translate(60.59907407407408 17.955555555555552)"/><use xlink:href="#D" transform="matrix(1,0,0,1,882,1532) translate(27.851851851851848 41.15555555555555)"/><use xlink:href="#Q" transform="matrix(1,0,0,1,882,1532) translate(118.61728395061729 41.15555555555555)"/><use xlink:href="#R" transform="matrix(1,0,0,1,882,1532) translate(128.49382716049382 41.15555555555555)"/><use xlink:href="#S" transform="matrix(1,0,0,1,882,1532) translate(137.33333333333334 41.15555555555555)"/><path d="M910 1108a8 8 0 0 1 8-8h104a8 8 0 0 1 8 8v34a8 8 0 0 1-8 8H918a8 8 0 0 1-8-8z" stroke="#8b09bf" fill="#fbf0ff"/><use xlink:href="#T" transform="matrix(1,0,0,1,922,1112) translate(22.481481481481477 21.333333333333336)"/><use xlink:href="#U" transform="matrix(1,0,0,1,922,1112) translate(35.74074074074074 21.333333333333336)"/><use xlink:href="#V" transform="matrix(1,0,0,1,922,1112) translate(58.70370370370371 21.333333333333336)"/><path d="M970 1072.5v10.62" stroke="#000" fill="none"/><path d="M970.48 1072.52h-.96v-.5h.96z" stroke="#000" stroke-width=".05"/><path d="M970 1097.88l-4.63-14.26h9.26z" stroke="#000"/><path d="M970 1151v51.62" stroke="#000" fill="none"/><path d="M970.48 1151h-.96v-.5h.96z" stroke="#000" stroke-width=".05"/><path d="M970 1217.38l-4.63-14.26h9.26z" stroke="#000"/><path d="M970 1485.2v17.42" stroke="#000" fill="none"/><path d="M970.48 1485.22h-.96v-.5h.96z" stroke="#000" stroke-width=".05"/><path d="M970 1517.38l-4.63-14.26h9.26z" stroke="#000"/><path d="M970 1585.2v18.16" stroke="#000" fill="none"/><path d="M970.48 1585.22h-.96v-.5h.96z" stroke="#000" stroke-width=".05"/><path d="M970 1618.12l-4.63-14.26h9.26z" stroke="#000"/><path d="M1103.12 1652.83h-36.46v-1.95h36.46zm77.86-12.94l-.16 2-.48 1.97-.78 1.88-1.06 1.73-1.32 1.55-1.55 1.33-1.74 1.06-1.9.78-1.97.47-2 .16h-28.3v-1.95h28.23l1.76-.14 1.7-.4 1.58-.66 1.48-.9 1.3-1.13 1.14-1.32.9-1.47.66-1.6.4-1.68.14-1.76V1439h1.95z" stroke="#008a0e" stroke-width=".05" fill="#008a0e"/><path d="M1066.7 1652.83h-1.16l.12-.97-.12-.98h1.15z" fill="#008a0e"/><path stroke="#008a0e" stroke-width=".05" fill="#008a0e"/><path d="M1184.63 1438h-9.27l4.64-14.26z" fill="#008a0e"/><path d="M1185.98 1438.98h-11.96l5.98-18.4zm-9.27-1.95h6.6l-3.3-10.14z" stroke="#008a0e" stroke-width=".05" fill="#008a0e"/><g><use xlink:href="#k" transform="matrix(1,0,0,1,1103.120791176112,1638.3892638630873) translate(0.004999999999999005 17.955555555555552)"/></g><path d="M1120 1378a8 8 0 0 1 8-8h104a8 8 0 0 1 8 8v34a8 8 0 0 1-8 8h-104a8 8 0 0 1-8-8z" stroke="#8b09bf" fill="#fbf0ff"/><g><use xlink:href="#T" transform="matrix(1,0,0,1,1132,1382) translate(11.777777777777771 21.333333333333336)"/><use xlink:href="#U" transform="matrix(1,0,0,1,1132,1382) translate(25.03703703703703 21.333333333333336)"/><use xlink:href="#W" transform="matrix(1,0,0,1,1132,1382) translate(48 21.333333333333336)"/></g><path d="M1180 1369v-105.14a12 12 0 0 0-12-12h-80.62" stroke="#000" fill="none"/><path d="M1180.47 1369.5h-.94v-.5h.94z" stroke="#000" stroke-width=".05"/><path d="M1072.62 1251.86l14.26-4.64v9.27z" stroke="#000"/><path d="M970.98 1720.5H969v-1.82H971zm0-28.75H969v-6.78H971z" stroke="#e81313" stroke-width=".05" fill="#e81313"/><path d="M970 1683.97l.98-.03v1.05H969v-1.06z" fill="#e81313"/><path stroke="#e81313" stroke-width=".05" fill="#e81313"/><path d="M970 1735.76l-4.63-14.26h9.26z" fill="#e81313"/><path d="M970 1738.92l-5.98-18.4h11.96zm-3.3-16.45l3.3 10.14 3.3-10.13z" stroke="#e81313" stroke-width=".05" fill="#e81313"/><g><use xlink:href="#p" transform="matrix(1,0,0,1,955.6916666666666,1691.7468357365985) translate(0.005000000000000782 17.955555555555552)"/></g><path d="M870 1748a8 8 0 0 1 8-8h184a8 8 0 0 1 8 8v47.7a8 8 0 0 1-8 8H878a8 8 0 0 1-8-8z" stroke="#1071e5" stroke-width="2" fill="#edf5ff"/><g><use xlink:href="#F" transform="matrix(1,0,0,1,881.9999999999999,1752) translate(36.87654320987655 24.488888888888887)"/><use xlink:href="#e" transform="matrix(1,0,0,1,881.9999999999999,1752) translate(83.01234567901236 24.488888888888887)"/></g><path d="M970 1805.2v16.33a.33.33 0 0 0 .33.33.33.33 0 0 1 .33.33v.42" stroke="#000" fill="none"/><path d="M970.48 1805.22h-.96v-.5h.96z" stroke="#000" stroke-width=".05"/><path d="M970.66 1837.38l-4.63-14.26h9.27z" stroke="#000"/><path d="M870.66 1848a8 8 0 0 1 8-8h184a8 8 0 0 1 8 8v47.7a8 8 0 0 1-8 8h-184a8 8 0 0 1-8-8z" stroke="#1071e5" stroke-width="2" fill="#edf5ff"/><g><use xlink:href="#G" transform="matrix(1,0,0,1,882.6606851037271,1852) translate(34.476234567901244 24.488888888888887)"/><use xlink:href="#H" transform="matrix(1,0,0,1,882.6606851037271,1852) translate(85.53734567901235 24.488888888888887)"/></g><path d="M970.66 1905.2v17.42" stroke="#000" fill="none"/><path d="M971.14 1905.22h-.95v-.5h.94z" stroke="#000" stroke-width=".05"/><path d="M970.66 1937.38l-4.63-14.27 9.27.02z" stroke="#000"/><defs><path d="M127-220V0H93v-220H8v-28h204v28h-85" id="X"/><path d="M100-194c63 0 86 42 84 106H49c0 40 14 67 53 68 26 1 43-12 49-29l28 8c-11 28-37 45-77 45C44 4 14-33 15-96c1-61 26-98 85-98zm52 81c6-60-76-77-97-28-3 7-6 17-6 28h103" id="Y"/><path d="M141 0L90-78 38 0H4l68-98-65-92h35l48 74 47-74h35l-64 92 68 98h-35" id="Z"/><path d="M59-47c-2 24 18 29 38 22v24C64 9 27 4 27-40v-127H5v-23h24l9-43h21v43h35v23H59v120" id="aa"/><g id="a"><use transform="matrix(0.06172839506172839,0,0,0.06172839506172839,0,0)" xlink:href="#X"/><use transform="matrix(0.06172839506172839,0,0,0.06172839506172839,11.049382716049381,0)" xlink:href="#Y"/><use transform="matrix(0.06172839506172839,0,0,0.06172839506172839,23.39506172839506,0)" xlink:href="#Z"/><use transform="matrix(0.06172839506172839,0,0,0.06172839506172839,34.50617283950617,0)" xlink:href="#aa"/></g><path d="M194 0L95-120 63-95V0H30v-248h33v124l119-124h40L117-140 236 0h-42" id="ab"/><path d="M179-190L93 31C79 59 56 82 12 73V49c39 6 53-20 64-50L1-190h34L92-34l54-156h33" id="ac"/><g id="b"><use transform="matrix(0.06172839506172839,0,0,0.06172839506172839,0,0)" xlink:href="#ab"/><use transform="matrix(0.06172839506172839,0,0,0.06172839506172839,14.814814814814813,0)" xlink:href="#Y"/><use transform="matrix(0.06172839506172839,0,0,0.06172839506172839,27.160493827160494,0)" xlink:href="#ac"/></g><path d="M212-179c-10-28-35-45-73-45-59 0-87 40-87 99 0 60 29 101 89 101 43 0 62-24 78-52l27 14C228-24 195 4 139 4 59 4 22-46 18-125c-6-104 99-153 187-111 19 9 31 26 39 46" id="ad"/><path d="M100-194c62-1 85 37 85 99 1 63-27 99-86 99S16-35 15-95c0-66 28-99 85-99zM99-20c44 1 53-31 53-75 0-43-8-75-51-75s-53 32-53 75 10 74 51 75" id="ae"/><path d="M117-194c89-4 53 116 60 194h-32v-121c0-31-8-49-39-48C34-167 62-67 57 0H25l-1-190h30c1 10-1 24 2 32 11-22 29-35 61-36" id="af"/><path d="M108 0H70L1-190h34L89-25l56-165h34" id="ag"/><path d="M114-163C36-179 61-72 57 0H25l-1-190h30c1 12-1 29 2 39 6-27 23-49 58-41v29" id="ah"/><g id="c"><use transform="matrix(0.06234567901234567,0,0,0.06234567901234567,0,0)" xlink:href="#ad"/><use transform="matrix(0.06234567901234567,0,0,0.06234567901234567,16.147530864197527,0)" xlink:href="#ae"/><use transform="matrix(0.06234567901234567,0,0,0.06234567901234567,28.61666666666666,0)" xlink:href="#af"/><use transform="matrix(0.06234567901234567,0,0,0.06234567901234567,41.08580246913579,0)" xlink:href="#ag"/><use transform="matrix(0.06234567901234567,0,0,0.06234567901234567,52.308024691358014,0)" xlink:href="#Y"/><use transform="matrix(0.06234567901234567,0,0,0.06234567901234567,64.77716049382715,0)" xlink:href="#ah"/><use transform="matrix(0.06234567901234567,0,0,0.06234567901234567,72.19629629629628,0)" xlink:href="#aa"/></g><g id="d"><use transform="matrix(0.06234567901234567,0,0,0.06234567901234567,0,0)" xlink:href="#X"/><use transform="matrix(0.06234567901234567,0,0,0.06234567901234567,11.159876543209876,0)" xlink:href="#ae"/></g><path d="M160-131c35 5 61 23 61 61C221 17 115-2 30 0v-248c76 3 177-17 177 60 0 33-19 50-47 57zm-97-11c50-1 110 9 110-42 0-47-63-36-110-37v79zm0 115c55-2 124 14 124-45 0-56-70-42-124-44v89" id="ai"/><path d="M135-143c-3-34-86-38-87 0 15 53 115 12 119 90S17 21 10-45l28-5c4 36 97 45 98 0-10-56-113-15-118-90-4-57 82-63 122-42 12 7 21 19 24 35" id="aj"/><g id="e"><use transform="matrix(0.06234567901234567,0,0,0.06234567901234567,0,0)" xlink:href="#ai"/><use transform="matrix(0.06234567901234567,0,0,0.06234567901234567,14.96296296296296,0)" xlink:href="#ac"/><use transform="matrix(0.06234567901234567,0,0,0.06234567901234567,26.18518518518518,0)" xlink:href="#aa"/><use transform="matrix(0.06234567901234567,0,0,0.06234567901234567,32.419753086419746,0)" xlink:href="#Y"/><use transform="matrix(0.06234567901234567,0,0,0.06234567901234567,44.88888888888888,0)" xlink:href="#aj"/></g><g id="f"><use transform="matrix(0.06234567901234567,0,0,0.06234567901234567,0,0)" xlink:href="#ab"/><use transform="matrix(0.06234567901234567,0,0,0.06234567901234567,14.96296296296296,0)" xlink:href="#Y"/><use transform="matrix(0.06234567901234567,0,0,0.06234567901234567,27.432098765432094,0)" xlink:href="#ac"/></g><path d="M24-231v-30h32v30H24zM24 0v-190h32V0H24" id="ak"/><g id="g"><use transform="matrix(0.06234567901234567,0,0,0.06234567901234567,0,0)" xlink:href="#ak"/><use transform="matrix(0.06234567901234567,0,0,0.06234567901234567,4.925308641975308,0)" xlink:href="#aj"/></g><path d="M27 0v-27h64v-190l-56 39v-29l58-41h29v221h61V0H27" id="al"/><path d="M110-160c48 1 74 30 74 79 0 53-28 85-80 85-65 0-83-55-86-122-5-90 50-162 133-122 14 7 22 21 27 39l-31 6c-5-40-67-38-82-6-9 19-15 44-15 74 11-20 30-34 60-33zm-7 138c34 0 49-23 49-58s-16-56-50-56c-29 0-50 16-49 49 1 36 15 65 50 65" id="am"/><g id="h"><use transform="matrix(0.06234567901234567,0,0,0.06234567901234567,0,0)" xlink:href="#al"/><use transform="matrix(0.06234567901234567,0,0,0.06234567901234567,12.469135802469133,0)" xlink:href="#am"/></g><path d="M103-251c84 0 111 97 45 133-19 10-37 24-39 52H78c0-63 77-55 77-114 0-30-21-42-52-43-32 0-53 17-56 46l-32-2c7-45 34-72 88-72zM77 0v-35h34V0H77" id="an"/><g id="i"><use transform="matrix(0.06234567901234567,0,0,0.06234567901234567,0,0)" xlink:href="#ai"/><use transform="matrix(0.06234567901234567,0,0,0.06234567901234567,14.96296296296296,0)" xlink:href="#ac"/><use transform="matrix(0.06234567901234567,0,0,0.06234567901234567,26.18518518518518,0)" xlink:href="#aa"/><use transform="matrix(0.06234567901234567,0,0,0.06234567901234567,32.419753086419746,0)" xlink:href="#Y"/><use transform="matrix(0.06234567901234567,0,0,0.06234567901234567,44.88888888888888,0)" xlink:href="#aj"/><use transform="matrix(0.06234567901234567,0,0,0.06234567901234567,56.1111111111111,0)" xlink:href="#an"/></g><g id="j"><use transform="matrix(0.06234567901234567,0,0,0.06234567901234567,0,0)" xlink:href="#ab"/><use transform="matrix(0.06234567901234567,0,0,0.06234567901234567,14.96296296296296,0)" xlink:href="#Y"/><use transform="matrix(0.06234567901234567,0,0,0.06234567901234567,27.432098765432094,0)" xlink:href="#ac"/></g><path d="M137-103V0h-34v-103L8-248h37l75 118 75-118h37" id="ao"/><g id="k"><use transform="matrix(0.06234567901234567,0,0,0.06234567901234567,0,0)" xlink:href="#ao"/><use transform="matrix(0.06234567901234567,0,0,0.06234567901234567,12.905555555555553,0)" xlink:href="#Y"/><use transform="matrix(0.06234567901234567,0,0,0.06234567901234567,25.374691358024684,0)" xlink:href="#aj"/></g><path d="M30 0v-248h187v28H63v79h144v27H63v87h162V0H30" id="ap"/><path d="M115-194c55 1 70 41 70 98S169 2 115 4C84 4 66-9 55-30l1 105H24l-1-265h31l2 30c10-21 28-34 59-34zm-8 174c40 0 45-34 45-75s-6-73-45-74c-42 0-51 32-51 76 0 43 10 73 51 73" id="aq"/><path d="M141-36C126-15 110 5 73 4 37 3 15-17 15-53c-1-64 63-63 125-63 3-35-9-54-41-54-24 1-41 7-42 31l-33-3c5-37 33-52 76-52 45 0 72 20 72 64v82c-1 20 7 32 28 27v20c-31 9-61-2-59-35zM48-53c0 20 12 33 32 33 41-3 63-29 60-74-43 2-92-5-92 41" id="ar"/><g id="l"><use transform="matrix(0.06234567901234567,0,0,0.06234567901234567,0,0)" xlink:href="#ap"/><use transform="matrix(0.06234567901234567,0,0,0.06234567901234567,14.96296296296296,0)" xlink:href="#Z"/><use transform="matrix(0.06234567901234567,0,0,0.06234567901234567,26.18518518518518,0)" xlink:href="#aq"/><use transform="matrix(0.06234567901234567,0,0,0.06234567901234567,38.654320987654316,0)" xlink:href="#ar"/><use transform="matrix(0.06234567901234567,0,0,0.06234567901234567,51.12345679012345,0)" xlink:href="#af"/><use transform="matrix(0.06234567901234567,0,0,0.06234567901234567,63.59259259259258,0)" xlink:href="#aj"/><use transform="matrix(0.06234567901234567,0,0,0.06234567901234567,74.8148148148148,0)" xlink:href="#ak"/><use transform="matrix(0.06234567901234567,0,0,0.06234567901234567,79.7401234567901,0)" xlink:href="#ae"/><use transform="matrix(0.06234567901234567,0,0,0.06234567901234567,92.20925925925923,0)" xlink:href="#af"/></g><path d="M87 75C49 33 22-17 22-94c0-76 28-126 65-167h31c-38 41-64 92-64 168S80 34 118 75H87" id="as"/><path d="M177-190C167-65 218 103 67 71c-23-6-38-20-44-43l32-5c15 47 100 32 89-28v-30C133-14 115 1 83 1 29 1 15-40 15-95c0-56 16-97 71-98 29-1 48 16 59 35 1-10 0-23 2-32h30zM94-22c36 0 50-32 50-73 0-42-14-75-50-75-39 0-46 34-46 75s6 73 46 73" id="at"/><g id="m"><use transform="matrix(0.04320987654320988,0,0,0.04320987654320988,0,0)" xlink:href="#as"/><use transform="matrix(0.04320987654320988,0,0,0.04320987654320988,5.1419753086419755,0)" xlink:href="#at"/><use transform="matrix(0.04320987654320988,0,0,0.04320987654320988,13.783950617283953,0)" xlink:href="#Y"/><use transform="matrix(0.04320987654320988,0,0,0.04320987654320988,22.425925925925934,0)" xlink:href="#af"/><use transform="matrix(0.04320987654320988,0,0,0.04320987654320988,31.067901234567906,0)" xlink:href="#Y"/><use transform="matrix(0.04320987654320988,0,0,0.04320987654320988,39.70987654320988,0)" xlink:href="#ah"/><use transform="matrix(0.04320987654320988,0,0,0.04320987654320988,44.851851851851855,0)" xlink:href="#ar"/><use transform="matrix(0.04320987654320988,0,0,0.04320987654320988,53.49382716049383,0)" xlink:href="#aa"/><use transform="matrix(0.04320987654320988,0,0,0.04320987654320988,57.814814814814824,0)" xlink:href="#Y"/></g><g id="n"><use transform="matrix(0.04320987654320988,0,0,0.04320987654320988,0,0)" xlink:href="#al"/><use transform="matrix(0.04320987654320988,0,0,0.04320987654320988,7.475308641975309,0)" xlink:href="#al"/></g><path d="M33-261c38 41 65 92 65 168S71 34 33 75H2C39 34 66-17 66-93S39-220 2-261h31" id="au"/><g id="o"><use transform="matrix(0.04320987654320988,0,0,0.04320987654320988,0,0)" xlink:href="#ab"/><use transform="matrix(0.04320987654320988,0,0,0.04320987654320988,10.370370370370372,0)" xlink:href="#Y"/><use transform="matrix(0.04320987654320988,0,0,0.04320987654320988,19.01234567901235,0)" xlink:href="#ac"/><use transform="matrix(0.04320987654320988,0,0,0.04320987654320988,26.790123456790127,0)" xlink:href="#aj"/><use transform="matrix(0.04320987654320988,0,0,0.04320987654320988,34.567901234567906,0)" xlink:href="#au"/></g><path d="M190 0L58-211 59 0H30v-248h39L202-35l-2-213h31V0h-41" id="av"/><g id="p"><use transform="matrix(0.06234567901234567,0,0,0.06234567901234567,0,0)" xlink:href="#av"/><use transform="matrix(0.06234567901234567,0,0,0.06234567901234567,16.147530864197527,0)" xlink:href="#ae"/></g><path d="M233-177c-1 41-23 64-60 70L243 0h-38l-65-103H63V0H30v-248c88 3 205-21 203 71zM63-129c60-2 137 13 137-47 0-61-80-42-137-45v92" id="aw"/><g id="q"><use transform="matrix(0.06234567901234567,0,0,0.06234567901234567,0,0)" xlink:href="#aw"/><use transform="matrix(0.06234567901234567,0,0,0.06234567901234567,16.147530864197527,0)" xlink:href="#ar"/><use transform="matrix(0.06234567901234567,0,0,0.06234567901234567,28.61666666666666,0)" xlink:href="#ak"/><use transform="matrix(0.06234567901234567,0,0,0.06234567901234567,33.541975308641966,0)" xlink:href="#aj"/><use transform="matrix(0.06234567901234567,0,0,0.06234567901234567,44.76419753086419,0)" xlink:href="#Y"/></g><path d="M96-169c-40 0-48 33-48 73s9 75 48 75c24 0 41-14 43-38l32 2c-6 37-31 61-74 61-59 0-76-41-82-99-10-93 101-131 147-64 4 7 5 14 7 22l-32 3c-4-21-16-35-41-35" id="ax"/><g id="r"><use transform="matrix(0.06234567901234567,0,0,0.06234567901234567,0,0)" xlink:href="#ap"/><use transform="matrix(0.06234567901234567,0,0,0.06234567901234567,14.96296296296296,0)" xlink:href="#Z"/><use transform="matrix(0.06234567901234567,0,0,0.06234567901234567,26.18518518518518,0)" xlink:href="#ax"/><use transform="matrix(0.06234567901234567,0,0,0.06234567901234567,37.4074074074074,0)" xlink:href="#Y"/><use transform="matrix(0.06234567901234567,0,0,0.06234567901234567,49.87654320987653,0)" xlink:href="#aq"/><use transform="matrix(0.06234567901234567,0,0,0.06234567901234567,62.34567901234566,0)" xlink:href="#aa"/><use transform="matrix(0.06234567901234567,0,0,0.06234567901234567,68.58024691358023,0)" xlink:href="#ak"/><use transform="matrix(0.06234567901234567,0,0,0.06234567901234567,73.50555555555553,0)" xlink:href="#ae"/><use transform="matrix(0.06234567901234567,0,0,0.06234567901234567,85.97469135802467,0)" xlink:href="#af"/></g><g id="s"><use transform="matrix(0.06234567901234567,0,0,0.06234567901234567,0,0)" xlink:href="#X"/><use transform="matrix(0.06234567901234567,0,0,0.06234567901234567,11.159876543209876,0)" xlink:href="#Y"/><use transform="matrix(0.06234567901234567,0,0,0.06234567901234567,23.62901234567901,0)" xlink:href="#Z"/><use transform="matrix(0.06234567901234567,0,0,0.06234567901234567,34.85123456790123,0)" xlink:href="#aa"/></g><g id="t"><use transform="matrix(0.06172839506172839,0,0,0.06172839506172839,0,0)" xlink:href="#ad"/><use transform="matrix(0.06172839506172839,0,0,0.06172839506172839,15.987654320987653,0)" xlink:href="#ah"/><use transform="matrix(0.06172839506172839,0,0,0.06172839506172839,23.333333333333332,0)" xlink:href="#Y"/><use transform="matrix(0.06172839506172839,0,0,0.06172839506172839,35.67901234567901,0)" xlink:href="#ar"/><use transform="matrix(0.06172839506172839,0,0,0.06172839506172839,48.02469135802469,0)" xlink:href="#aa"/><use transform="matrix(0.06172839506172839,0,0,0.06172839506172839,54.19753086419753,0)" xlink:href="#Y"/></g><path d="M24 0v-261h32V0H24" id="ay"/><path d="M143 0L79-87 56-68V0H24v-261h32v163l83-92h37l-77 82L181 0h-38" id="az"/><g id="u"><use transform="matrix(0.06172839506172839,0,0,0.06172839506172839,0,0)" xlink:href="#ai"/><use transform="matrix(0.06172839506172839,0,0,0.06172839506172839,14.814814814814813,0)" xlink:href="#ay"/><use transform="matrix(0.06172839506172839,0,0,0.06172839506172839,19.691358024691354,0)" xlink:href="#ae"/><use transform="matrix(0.06172839506172839,0,0,0.06172839506172839,32.03703703703703,0)" xlink:href="#ax"/><use transform="matrix(0.06172839506172839,0,0,0.06172839506172839,43.14814814814814,0)" xlink:href="#az"/><use transform="matrix(0.06172839506172839,0,0,0.06172839506172839,54.25925925925925,0)" xlink:href="#aj"/></g><g id="v"><use transform="matrix(0.03703703703703704,0,0,0.03703703703703704,0,0)" xlink:href="#as"/><use transform="matrix(0.03703703703703704,0,0,0.03703703703703704,4.407407407407408,0)" xlink:href="#ad"/><use transform="matrix(0.03703703703703704,0,0,0.03703703703703704,14.000000000000002,0)" xlink:href="#ae"/><use transform="matrix(0.03703703703703704,0,0,0.03703703703703704,21.407407407407412,0)" xlink:href="#af"/><use transform="matrix(0.03703703703703704,0,0,0.03703703703703704,28.81481481481482,0)" xlink:href="#ag"/><use transform="matrix(0.03703703703703704,0,0,0.03703703703703704,35.48148148148149,0)" xlink:href="#Y"/><use transform="matrix(0.03703703703703704,0,0,0.03703703703703704,42.8888888888889,0)" xlink:href="#ah"/><use transform="matrix(0.03703703703703704,0,0,0.03703703703703704,47.296296296296305,0)" xlink:href="#aa"/></g><g id="w"><use transform="matrix(0.03703703703703704,0,0,0.03703703703703704,0,0)" xlink:href="#aa"/><use transform="matrix(0.03703703703703704,0,0,0.03703703703703704,3.703703703703704,0)" xlink:href="#ae"/></g><path d="M155-56V0h-30v-56H8v-25l114-167h33v167h35v25h-35zm-30-156c-27 46-58 90-88 131h88v-131" id="aA"/><g id="x"><use transform="matrix(0.03703703703703704,0,0,0.03703703703703704,0,0)" xlink:href="#aA"/><use transform="matrix(0.03703703703703704,0,0,0.03703703703703704,7.407407407407408,0)" xlink:href="#Z"/><use transform="matrix(0.03703703703703704,0,0,0.03703703703703704,14.074074074074076,0)" xlink:href="#aA"/></g><g id="y"><use transform="matrix(0.03703703703703704,0,0,0.03703703703703704,0,0)" xlink:href="#ai"/><use transform="matrix(0.03703703703703704,0,0,0.03703703703703704,8.88888888888889,0)" xlink:href="#ay"/><use transform="matrix(0.03703703703703704,0,0,0.03703703703703704,11.814814814814817,0)" xlink:href="#ae"/><use transform="matrix(0.03703703703703704,0,0,0.03703703703703704,19.222222222222225,0)" xlink:href="#ax"/><use transform="matrix(0.03703703703703704,0,0,0.03703703703703704,25.888888888888893,0)" xlink:href="#az"/><use transform="matrix(0.03703703703703704,0,0,0.03703703703703704,32.55555555555556,0)" xlink:href="#aj"/><use transform="matrix(0.03703703703703704,0,0,0.03703703703703704,39.22222222222223,0)" xlink:href="#au"/></g><path d="M205 0l-28-72H64L36 0H1l101-248h38L239 0h-34zm-38-99l-47-123c-12 45-31 82-46 123h93" id="aB"/><path d="M85-194c31 0 48 13 60 33l-1-100h32l1 261h-30c-2-10 0-23-3-31C134-8 116 4 85 4 32 4 16-35 15-94c0-66 23-100 70-100zm9 24c-40 0-46 34-46 75 0 40 6 74 45 74 42 0 51-32 51-76 0-42-9-74-50-73" id="aC"/><path d="M84 4C-5 8 30-112 23-190h32v120c0 31 7 50 39 49 72-2 45-101 50-169h31l1 190h-30c-1-10 1-25-2-33-11 22-28 36-60 37" id="aD"/><g id="z"><use transform="matrix(0.06234567901234567,0,0,0.06234567901234567,0,0)" xlink:href="#aB"/><use transform="matrix(0.06234567901234567,0,0,0.06234567901234567,14.96296296296296,0)" xlink:href="#aC"/><use transform="matrix(0.06234567901234567,0,0,0.06234567901234567,27.432098765432094,0)" xlink:href="#aC"/><use transform="matrix(0.06234567901234567,0,0,0.06234567901234567,39.90123456790123,0)" xlink:href="#aw"/><use transform="matrix(0.06234567901234567,0,0,0.06234567901234567,56.048765432098755,0)" xlink:href="#ae"/><use transform="matrix(0.06234567901234567,0,0,0.06234567901234567,68.51790123456789,0)" xlink:href="#aD"/><use transform="matrix(0.06234567901234567,0,0,0.06234567901234567,80.98703703703703,0)" xlink:href="#af"/><use transform="matrix(0.06234567901234567,0,0,0.06234567901234567,93.45617283950617,0)" xlink:href="#aC"/><use transform="matrix(0.06234567901234567,0,0,0.06234567901234567,105.9253086419753,0)" xlink:href="#az"/><use transform="matrix(0.06234567901234567,0,0,0.06234567901234567,117.14753086419752,0)" xlink:href="#Y"/><use transform="matrix(0.06234567901234567,0,0,0.06234567901234567,129.61666666666665,0)" xlink:href="#ac"/></g><path d="M26 75v-336h71v23H56V52h41v23H26" id="aE"/><path d="M101-251c68 0 85 55 85 127S166 4 100 4C33 4 14-52 14-124c0-73 17-127 87-127zm-1 229c47 0 54-49 54-102s-4-102-53-102c-51 0-55 48-55 102 0 53 5 102 54 102" id="aF"/><path d="M3 75V52h41v-290H3v-23h71V75H3" id="aG"/><g id="A"><use transform="matrix(0.06234567901234567,0,0,0.06234567901234567,0,0)" xlink:href="#aE"/><use transform="matrix(0.06234567901234567,0,0,0.06234567901234567,6.234567901234566,0)" xlink:href="#aF"/><use transform="matrix(0.06234567901234567,0,0,0.06234567901234567,18.7037037037037,0)" xlink:href="#aG"/></g><g id="B"><use transform="matrix(0.06234567901234567,0,0,0.06234567901234567,0,0)" xlink:href="#aB"/><use transform="matrix(0.06234567901234567,0,0,0.06234567901234567,14.96296296296296,0)" xlink:href="#aC"/><use transform="matrix(0.06234567901234567,0,0,0.06234567901234567,27.432098765432094,0)" xlink:href="#aC"/></g><g id="C"><use transform="matrix(0.06234567901234567,0,0,0.06234567901234567,0,0)" xlink:href="#aw"/><use transform="matrix(0.06234567901234567,0,0,0.06234567901234567,16.147530864197527,0)" xlink:href="#ae"/><use transform="matrix(0.06234567901234567,0,0,0.06234567901234567,28.61666666666666,0)" xlink:href="#aD"/><use transform="matrix(0.06234567901234567,0,0,0.06234567901234567,41.08580246913579,0)" xlink:href="#af"/><use transform="matrix(0.06234567901234567,0,0,0.06234567901234567,53.554938271604925,0)" xlink:href="#aC"/><use transform="matrix(0.06234567901234567,0,0,0.06234567901234567,66.02407407407406,0)" xlink:href="#az"/><use transform="matrix(0.06234567901234567,0,0,0.06234567901234567,77.24629629629628,0)" xlink:href="#Y"/><use transform="matrix(0.06234567901234567,0,0,0.06234567901234567,89.7154320987654,0)" xlink:href="#ac"/></g><g id="D"><use transform="matrix(0.04938271604938272,0,0,0.04938271604938272,0,0)" xlink:href="#as"/><use transform="matrix(0.04938271604938272,0,0,0.04938271604938272,5.8765432098765435,0)" xlink:href="#aw"/><use transform="matrix(0.04938271604938272,0,0,0.04938271604938272,18.666666666666668,0)" xlink:href="#ae"/><use transform="matrix(0.04938271604938272,0,0,0.04938271604938272,28.543209876543212,0)" xlink:href="#aD"/><use transform="matrix(0.04938271604938272,0,0,0.04938271604938272,38.41975308641976,0)" xlink:href="#af"/><use transform="matrix(0.04938271604938272,0,0,0.04938271604938272,48.296296296296305,0)" xlink:href="#aC"/><use transform="matrix(0.04938271604938272,0,0,0.04938271604938272,58.17283950617284,0)" xlink:href="#az"/><use transform="matrix(0.04938271604938272,0,0,0.04938271604938272,67.06172839506173,0)" xlink:href="#Y"/><use transform="matrix(0.04938271604938272,0,0,0.04938271604938272,76.93827160493828,0)" xlink:href="#ac"/></g><g id="E"><use transform="matrix(0.04938271604938272,0,0,0.04938271604938272,0,0)" xlink:href="#aE"/><use transform="matrix(0.04938271604938272,0,0,0.04938271604938272,4.938271604938272,0)" xlink:href="#al"/><use transform="matrix(0.04938271604938272,0,0,0.04938271604938272,14.814814814814817,0)" xlink:href="#aF"/><use transform="matrix(0.04938271604938272,0,0,0.04938271604938272,24.69135802469136,0)" xlink:href="#aG"/><use transform="matrix(0.04938271604938272,0,0,0.04938271604938272,29.629629629629633,0)" xlink:href="#au"/></g><path d="M185-189c-5-48-123-54-124 2 14 75 158 14 163 119 3 78-121 87-175 55-17-10-28-26-33-46l33-7c5 56 141 63 141-1 0-78-155-14-162-118-5-82 145-84 179-34 5 7 8 16 11 25" id="aH"/><path d="M115-194c53 0 69 39 70 98 0 66-23 100-70 100C84 3 66-7 56-30L54 0H23l1-261h32v101c10-23 28-34 59-34zm-8 174c40 0 45-34 45-75 0-40-5-75-45-74-42 0-51 32-51 76 0 43 10 73 51 73" id="aI"/><g id="F"><use transform="matrix(0.06234567901234567,0,0,0.06234567901234567,0,0)" xlink:href="#aH"/><use transform="matrix(0.06234567901234567,0,0,0.06234567901234567,14.96296296296296,0)" xlink:href="#aD"/><use transform="matrix(0.06234567901234567,0,0,0.06234567901234567,27.432098765432094,0)" xlink:href="#aI"/></g><path d="M106-169C34-169 62-67 57 0H25v-261h32l-1 103c12-21 28-36 61-36 89 0 53 116 60 194h-32v-121c2-32-8-49-39-48" id="aJ"/><path d="M101-234c-31-9-42 10-38 44h38v23H63V0H32v-167H5v-23h27c-7-52 17-82 69-68v24" id="aK"/><g id="G"><use transform="matrix(0.06234567901234567,0,0,0.06234567901234567,0,0)" xlink:href="#aH"/><use transform="matrix(0.06234567901234567,0,0,0.06234567901234567,14.96296296296296,0)" xlink:href="#aJ"/><use transform="matrix(0.06234567901234567,0,0,0.06234567901234567,27.432098765432094,0)" xlink:href="#ak"/><use transform="matrix(0.06234567901234567,0,0,0.06234567901234567,32.3574074074074,0)" xlink:href="#aK"/><use transform="matrix(0.06234567901234567,0,0,0.06234567901234567,38.59197530864196,0)" xlink:href="#aa"/></g><path d="M206 0h-36l-40-164L89 0H53L-1-190h32L70-26l43-164h34l41 164 42-164h31" id="aL"/><g id="H"><use transform="matrix(0.06234567901234567,0,0,0.06234567901234567,0,0)" xlink:href="#aw"/><use transform="matrix(0.06234567901234567,0,0,0.06234567901234567,16.147530864197527,0)" xlink:href="#ae"/><use transform="matrix(0.06234567901234567,0,0,0.06234567901234567,28.61666666666666,0)" xlink:href="#aL"/><use transform="matrix(0.06234567901234567,0,0,0.06234567901234567,44.76419753086419,0)" xlink:href="#aj"/></g><use transform="matrix(0.06234567901234567,0,0,0.06234567901234567,0,0)" xlink:href="#ak" id="I"/><path d="M18-100v-36l175-74v27L42-118l151 64v27" id="aM"/><use transform="matrix(0.06234567901234567,0,0,0.06234567901234567,0,0)" xlink:href="#aM" id="J"/><path d="M99-251c64 0 84 50 84 122C183-37 130 33 47-8c-14-7-20-23-25-40l30-5c6 39 69 39 84 7 9-19 16-44 16-74-10 22-31 35-62 35-49 0-73-33-73-83 0-54 28-83 82-83zm-1 141c31-1 51-18 51-49 0-36-14-67-51-67-34 0-49 23-49 58 0 34 15 58 49 58" id="aN"/><use transform="matrix(0.06234567901234567,0,0,0.06234567901234567,0,0)" xlink:href="#aN" id="K"/><g id="L"><use transform="matrix(0.06234567901234567,0,0,0.06234567901234567,0,0)" xlink:href="#aw"/><use transform="matrix(0.06234567901234567,0,0,0.06234567901234567,16.147530864197527,0)" xlink:href="#Y"/><use transform="matrix(0.06234567901234567,0,0,0.06234567901234567,28.61666666666666,0)" xlink:href="#aa"/><use transform="matrix(0.06234567901234567,0,0,0.06234567901234567,34.85123456790123,0)" xlink:href="#aD"/><use transform="matrix(0.06234567901234567,0,0,0.06234567901234567,47.32037037037036,0)" xlink:href="#ah"/><use transform="matrix(0.06234567901234567,0,0,0.06234567901234567,54.7395061728395,0)" xlink:href="#af"/></g><g id="M"><use transform="matrix(0.06234567901234567,0,0,0.06234567901234567,0,0)" xlink:href="#Y"/><use transform="matrix(0.06234567901234567,0,0,0.06234567901234567,12.469135802469133,0)" xlink:href="#af"/><use transform="matrix(0.06234567901234567,0,0,0.06234567901234567,24.938271604938265,0)" xlink:href="#ax"/><use transform="matrix(0.06234567901234567,0,0,0.06234567901234567,36.16049382716049,0)" xlink:href="#ah"/><use transform="matrix(0.06234567901234567,0,0,0.06234567901234567,43.57962962962962,0)" xlink:href="#ac"/><use transform="matrix(0.06234567901234567,0,0,0.06234567901234567,54.80185185185184,0)" xlink:href="#aq"/><use transform="matrix(0.06234567901234567,0,0,0.06234567901234567,67.27098765432098,0)" xlink:href="#aa"/><use transform="matrix(0.06234567901234567,0,0,0.06234567901234567,73.50555555555555,0)" xlink:href="#Y"/><use transform="matrix(0.06234567901234567,0,0,0.06234567901234567,85.97469135802467,0)" xlink:href="#aC"/></g><g id="N"><use transform="matrix(0.06234567901234567,0,0,0.06234567901234567,0,0)" xlink:href="#X"/><use transform="matrix(0.06234567901234567,0,0,0.06234567901234567,11.159876543209876,0)" xlink:href="#Y"/><use transform="matrix(0.06234567901234567,0,0,0.06234567901234567,23.62901234567901,0)" xlink:href="#Z"/><use transform="matrix(0.06234567901234567,0,0,0.06234567901234567,34.85123456790123,0)" xlink:href="#aa"/></g><path d="M240 0l2-218c-23 76-54 145-80 218h-23L58-218 59 0H30v-248h44l77 211c21-75 51-140 76-211h43V0h-30" id="aO"/><g id="O"><use transform="matrix(0.06234567901234567,0,0,0.06234567901234567,0,0)" xlink:href="#aO"/><use transform="matrix(0.06234567901234567,0,0,0.06234567901234567,18.641358024691353,0)" xlink:href="#ak"/><use transform="matrix(0.06234567901234567,0,0,0.06234567901234567,23.566666666666663,0)" xlink:href="#Z"/></g><path d="M210-169c-67 3-38 105-44 169h-31v-121c0-29-5-50-35-48C34-165 62-65 56 0H25l-1-190h30c1 10-1 24 2 32 10-44 99-50 107 0 11-21 27-35 58-36 85-2 47 119 55 194h-31v-121c0-29-5-49-35-48" id="aP"/><g id="P"><use transform="matrix(0.06234567901234567,0,0,0.06234567901234567,0,0)" xlink:href="#ad"/><use transform="matrix(0.06234567901234567,0,0,0.06234567901234567,16.147530864197527,0)" xlink:href="#ae"/><use transform="matrix(0.06234567901234567,0,0,0.06234567901234567,28.61666666666666,0)" xlink:href="#ay"/><use transform="matrix(0.06234567901234567,0,0,0.06234567901234567,33.541975308641966,0)" xlink:href="#aD"/><use transform="matrix(0.06234567901234567,0,0,0.06234567901234567,46.0111111111111,0)" xlink:href="#aP"/><use transform="matrix(0.06234567901234567,0,0,0.06234567901234567,64.65246913580245,0)" xlink:href="#af"/><use transform="matrix(0.06234567901234567,0,0,0.06234567901234567,77.12160493827159,0)" xlink:href="#aj"/></g><use transform="matrix(0.04938271604938272,0,0,0.04938271604938272,0,0)" xlink:href="#aE" id="Q"/><use transform="matrix(0.04938271604938272,0,0,0.04938271604938272,0,0)" xlink:href="#ak" id="R"/><g id="S"><use transform="matrix(0.04938271604938272,0,0,0.04938271604938272,0,0)" xlink:href="#aG"/><use transform="matrix(0.04938271604938272,0,0,0.04938271604938272,4.938271604938272,0)" xlink:href="#au"/></g><use transform="matrix(0.07407407407407408,0,0,0.07407407407407408,0,0)" xlink:href="#ak" id="T"/><path d="M18-150v-26h174v26H18zm0 90v-26h174v26H18" id="aQ"/><use transform="matrix(0.07407407407407408,0,0,0.07407407407407408,0,0)" xlink:href="#aQ" id="U"/><use transform="matrix(0.07407407407407408,0,0,0.07407407407407408,0,0)" xlink:href="#al" id="V"/><path d="M118-107v75H92v-75H18v-26h74v-75h26v75h74v26h-74" id="aR"/><g id="W"><use transform="matrix(0.07407407407407408,0,0,0.07407407407407408,0,0)" xlink:href="#ak"/><use transform="matrix(0.07407407407407408,0,0,0.07407407407407408,5.851851851851853,0)" xlink:href="#aR"/><use transform="matrix(0.07407407407407408,0,0,0.07407407407407408,21.407407407407412,0)" xlink:href="#al"/></g></defs></g></svg>